<mxfile host="app.diagrams.net" agent="Mozilla/5.0 (Windows NT 10.0; Win64; x64) AppleWebKit/537.36 (KHTML, like Gecko) Chrome/136.0.0.0 Safari/537.36" version="27.0.7">
  <diagram name="Page-1" id="p9nUb9tsc01j2mg7M1pO">
    <mxGraphModel dx="2101" dy="660" grid="1" gridSize="10" guides="1" tooltips="1" connect="1" arrows="1" fold="1" page="1" pageScale="1" pageWidth="850" pageHeight="1100" math="0" shadow="0">
      <root>
        <mxCell id="0" />
        <mxCell id="1" parent="0" />
        <mxCell id="-E99OEH8nLwhsnOUFwzt-1" value="" style="rounded=1;whiteSpace=wrap;html=1;fillColor=#f5f5f5;gradientColor=#b3b3b3;strokeColor=#666666;" vertex="1" parent="1">
          <mxGeometry x="-40" y="120" width="480" height="330" as="geometry" />
        </mxCell>
        <mxCell id="-E99OEH8nLwhsnOUFwzt-2" value="" style="rounded=0;whiteSpace=wrap;html=1;fillColor=#d5e8d4;gradientColor=#97d077;strokeColor=#82b366;" vertex="1" parent="1">
          <mxGeometry x="580" y="120" width="170" height="110" as="geometry" />
        </mxCell>
        <mxCell id="-E99OEH8nLwhsnOUFwzt-3" value="&lt;b&gt;NODE-1&lt;/b&gt;" style="text;html=1;align=center;verticalAlign=middle;resizable=0;points=[];autosize=1;strokeColor=none;fillColor=none;" vertex="1" parent="1">
          <mxGeometry x="630" y="120" width="70" height="30" as="geometry" />
        </mxCell>
        <mxCell id="-E99OEH8nLwhsnOUFwzt-4" value="&lt;b&gt;agent&lt;/b&gt;&lt;div&gt;&lt;b&gt;node-exporter&lt;/b&gt;&lt;/div&gt;" style="ellipse;whiteSpace=wrap;html=1;" vertex="1" parent="1">
          <mxGeometry x="590" y="150" width="90" height="50" as="geometry" />
        </mxCell>
        <mxCell id="-E99OEH8nLwhsnOUFwzt-6" style="edgeStyle=orthogonalEdgeStyle;rounded=0;orthogonalLoop=1;jettySize=auto;html=1;entryX=0;entryY=0.5;entryDx=0;entryDy=0;" edge="1" parent="1" source="-E99OEH8nLwhsnOUFwzt-5" target="-E99OEH8nLwhsnOUFwzt-4">
          <mxGeometry relative="1" as="geometry" />
        </mxCell>
        <mxCell id="-E99OEH8nLwhsnOUFwzt-5" value="&lt;b&gt;TSD&lt;/b&gt;" style="rounded=0;whiteSpace=wrap;html=1;fillColor=#dae8fc;gradientColor=#7ea6e0;strokeColor=#6c8ebf;" vertex="1" parent="1">
          <mxGeometry x="260" y="145" width="120" height="60" as="geometry" />
        </mxCell>
        <mxCell id="-E99OEH8nLwhsnOUFwzt-7" value="&lt;b&gt;15 Seconds&lt;/b&gt;" style="text;html=1;align=center;verticalAlign=middle;resizable=0;points=[];autosize=1;strokeColor=none;fillColor=none;" vertex="1" parent="1">
          <mxGeometry x="450" y="145" width="90" height="30" as="geometry" />
        </mxCell>
        <mxCell id="-E99OEH8nLwhsnOUFwzt-8" value="&lt;b&gt;Prometheus&lt;/b&gt;" style="text;html=1;align=center;verticalAlign=middle;resizable=0;points=[];autosize=1;strokeColor=none;fillColor=none;" vertex="1" parent="1">
          <mxGeometry x="150" y="120" width="90" height="30" as="geometry" />
        </mxCell>
        <mxCell id="-E99OEH8nLwhsnOUFwzt-10" style="edgeStyle=orthogonalEdgeStyle;rounded=0;orthogonalLoop=1;jettySize=auto;html=1;" edge="1" parent="1" source="-E99OEH8nLwhsnOUFwzt-9" target="-E99OEH8nLwhsnOUFwzt-5">
          <mxGeometry relative="1" as="geometry" />
        </mxCell>
        <mxCell id="-E99OEH8nLwhsnOUFwzt-9" value="" style="html=1;verticalLabelPosition=bottom;align=center;labelBackgroundColor=#ffffff;verticalAlign=top;strokeWidth=2;strokeColor=#0080F0;shadow=0;dashed=0;shape=mxgraph.ios7.icons.user;" vertex="1" parent="1">
          <mxGeometry x="-160" y="145" width="70" height="60" as="geometry" />
        </mxCell>
        <mxCell id="-E99OEH8nLwhsnOUFwzt-14" style="edgeStyle=orthogonalEdgeStyle;rounded=0;orthogonalLoop=1;jettySize=auto;html=1;entryX=0;entryY=0.5;entryDx=0;entryDy=0;" edge="1" parent="1" source="-E99OEH8nLwhsnOUFwzt-11" target="-E99OEH8nLwhsnOUFwzt-12">
          <mxGeometry relative="1" as="geometry" />
        </mxCell>
        <mxCell id="-E99OEH8nLwhsnOUFwzt-11" value="" style="html=1;verticalLabelPosition=bottom;align=center;labelBackgroundColor=#ffffff;verticalAlign=top;strokeWidth=2;strokeColor=#0080F0;shadow=0;dashed=0;shape=mxgraph.ios7.icons.user;" vertex="1" parent="1">
          <mxGeometry x="-160" y="290" width="70" height="60" as="geometry" />
        </mxCell>
        <mxCell id="-E99OEH8nLwhsnOUFwzt-13" style="edgeStyle=orthogonalEdgeStyle;rounded=0;orthogonalLoop=1;jettySize=auto;html=1;entryX=0;entryY=0.5;entryDx=0;entryDy=0;" edge="1" parent="1" source="-E99OEH8nLwhsnOUFwzt-12" target="-E99OEH8nLwhsnOUFwzt-5">
          <mxGeometry relative="1" as="geometry" />
        </mxCell>
        <mxCell id="-E99OEH8nLwhsnOUFwzt-12" value="&lt;b&gt;Grafana&lt;/b&gt;" style="rounded=0;whiteSpace=wrap;html=1;fillColor=#fff2cc;gradientColor=#ffd966;strokeColor=#d6b656;" vertex="1" parent="1">
          <mxGeometry y="290" width="120" height="60" as="geometry" />
        </mxCell>
        <mxCell id="-E99OEH8nLwhsnOUFwzt-16" style="edgeStyle=orthogonalEdgeStyle;rounded=0;orthogonalLoop=1;jettySize=auto;html=1;entryX=0;entryY=0.5;entryDx=0;entryDy=0;" edge="1" parent="1" source="-E99OEH8nLwhsnOUFwzt-15" target="-E99OEH8nLwhsnOUFwzt-2">
          <mxGeometry relative="1" as="geometry" />
        </mxCell>
        <mxCell id="-E99OEH8nLwhsnOUFwzt-15" value="&lt;b&gt;Service Discovery&lt;/b&gt;" style="rounded=0;whiteSpace=wrap;html=1;fillColor=#d5e8d4;gradientColor=#97d077;strokeColor=#82b366;" vertex="1" parent="1">
          <mxGeometry x="260" y="320" width="120" height="60" as="geometry" />
        </mxCell>
      </root>
    </mxGraphModel>
  </diagram>
</mxfile>
